<?xml version="1.0" encoding="UTF-8"?>
<svg xmlns="http://www.w3.org/2000/svg" onmouseup="{ if(window.parent.document.onmouseup) window.parent.document.onmouseup(arguments[0]);}" width="36" viewBox="0 0 36 36" id="S_RSS_18_N_2x" height="36" data-name="S_RSS_18_N@2x"><defs><style>
      .fill {
        fill: #6e6e6e;
      }

      
    </style></defs><circle data-cppathid="10000" r="4" cy="28.007" cx="7.993" class="fill"/><path data-cppathid="10001" d="M21.983,32.007h-4a.5.5,0,0,1-.5-.489,13.519,13.519,0,0,0-13-13,.5.5,0,0,1-.488-.5l0-4a.5.5,0,0,1,.511-.5A18.525,18.525,0,0,1,22.486,31.5.5.5,0,0,1,21.983,32.007Z" class="fill"/><path data-cppathid="10002" d="M31.985,32.007h-4a.5.5,0,0,1-.5-.493,23.7,23.7,0,0,0-23-23.19.5.5,0,0,1-.493-.5V4.015a.5.5,0,0,1,.51-.5A28.535,28.535,0,0,1,32.489,31.5.5.5,0,0,1,31.985,32.007Z" class="fill"/></svg>